<svg width="1440" height="42" viewBox="0 0 1440 42" fill="none" xmlns="http://www.w3.org/2000/svg">
    <mask id="path-1-inside-1_1_86" fill="white">
    <path d="M0 0.70752H1440V41.17H0V0.70752Z"/>
    </mask>
    <path d="M0 1.45752H1440V-0.0424805H0V1.45752ZM1440 40.42H0V41.92H1440V40.42Z" fill="white" mask="url(#path-1-inside-1_1_86)"/>
    <path d="M44.6725 22.5601C46.1222 22.5601 47.2975 21.3848 47.2975 19.9351C47.2975 18.4853 46.1222 17.3101 44.6725 17.3101C43.2227 17.3101 42.0475 18.4853 42.0475 19.9351C42.0475 21.3848 43.2227 22.5601 44.6725 22.5601Z" fill="#EF7A17"/>
    <path d="M357.482 22.5601C358.932 22.5601 360.107 21.3848 360.107 19.9351C360.107 18.4853 358.932 17.3101 357.482 17.3101C356.033 17.3101 354.857 18.4853 354.857 19.9351C354.857 21.3848 356.033 22.5601 357.482 22.5601Z" fill="#EF7A17"/>
    <path d="M669.292 22.5601C670.742 22.5601 671.917 21.3848 671.917 19.9351C671.917 18.4853 670.742 17.3101 669.292 17.3101C667.843 17.3101 666.667 18.4853 666.667 19.9351C666.667 21.3848 667.843 22.5601 669.292 22.5601Z" fill="#EF7A17"/>
    <path d="M981.095 22.5601C982.545 22.5601 983.72 21.3848 983.72 19.9351C983.72 18.4853 982.545 17.3101 981.095 17.3101C979.645 17.3101 978.47 18.4853 978.47 19.9351C978.47 21.3848 979.645 22.5601 981.095 22.5601Z" fill="#EF7A17"/>
    <path d="M1292.91 22.5601C1294.35 22.5601 1295.53 21.3848 1295.53 19.9351C1295.53 18.4853 1294.35 17.3101 1292.91 17.3101C1291.46 17.3101 1290.28 18.4853 1290.28 19.9351C1290.28 21.3848 1291.46 22.5601 1292.91 22.5601Z" fill="#EF7A17"/>
    <rect x="368" y="15" width="290" height="10" fill="white"/>
    <rect x="56" y="15" width="290" height="10" fill="white"/>
    <rect x="-256" y="15" width="290" height="10" fill="white"/>
    <rect x="680" y="15" width="290" height="10" fill="white"/>
    <rect x="992" y="15" width="290" height="10" fill="white"/>
    <rect x="1304" y="15" width="290" height="10" fill="white"/>
    </svg>
    