<svg width="315" height="50" viewBox="0 0 315 50" fill="none" xmlns="http://www.w3.org/2000/svg">
    <g clip-path="url(#clip0_7_2)">
    <path d="M1.09378 39.2024V32.6548H13.9353C14.2842 32.6548 14.5983 32.5714 14.8658 32.4167C15.145 32.2619 15.366 32.0357 15.5404 31.75C15.7149 31.4643 15.7963 31.1667 15.7963 30.8453C15.7963 30.4881 15.7149 30.1667 15.5404 29.8929C15.366 29.6072 15.145 29.3929 14.8658 29.2262C14.5866 29.0714 14.2726 28.9881 13.9353 28.9881H9.25928C7.52615 28.9881 5.95586 28.6905 4.56005 28.1072C3.1526 27.5238 2.04758 26.5953 1.23336 25.3453C0.419136 24.0834 0.0120239 22.4524 0.0120239 20.4286C0.0120239 18.8691 0.384241 17.4524 1.12867 16.1786C1.87311 14.9048 2.8967 13.8691 4.19946 13.0953C5.50222 12.3095 6.93293 11.9286 8.49158 11.9286H21.3331V18.5238H9.74782C9.25928 18.5238 8.85217 18.6786 8.52648 19C8.20079 19.3214 8.03795 19.7143 8.03795 20.1667C8.03795 20.6667 8.20079 21.0834 8.52648 21.4167C8.85217 21.75 9.25928 21.9167 9.74782 21.9167H14.3191C16.2616 21.9167 17.925 22.2143 19.3324 22.7976C20.7398 23.381 21.8216 24.3095 22.6009 25.5953C23.3803 26.8691 23.7641 28.5238 23.7641 30.5476C23.7641 32.1429 23.3803 33.5953 22.6009 34.9048C21.8216 36.2143 20.7864 37.2619 19.4836 38.0476C18.1809 38.8333 16.7152 39.2143 15.0868 39.2143H1.09378V39.2024Z" fill="black"/>
    <path d="M43.0841 18.6667V11.9167H35.7561V5.2619H27.6487V11.9167H23.2868V18.6667H27.6487V31.2143C27.6487 33.6667 28.3466 35.6071 29.7308 37.0357C31.115 38.4762 33.0342 39.1905 35.5002 39.1905H43.0841V32.2738H37.2682C36.8495 32.2738 36.5005 32.119 36.1981 31.8214C35.9073 31.5238 35.7561 31.1548 35.7561 30.7262V18.6548H43.0841V18.6667Z" fill="black"/>
    <path d="M75.0947 39.2024V19.9524C75.0947 17.4643 75.7926 15.5238 77.1768 14.0952C78.561 12.6786 80.4802 11.9643 82.9462 11.9643H90.6929V18.6667H84.9236C84.435 18.6667 84.0279 18.8333 83.679 19.1667C83.33 19.5 83.1555 19.9405 83.1555 20.4643V39.1905H75.0947V39.2024Z" fill="black"/>
    <path d="M101.452 50V39.3572C99.5098 38.8572 97.8465 38.0595 96.4623 36.9405C95.0781 35.8214 94.0196 34.4643 93.2868 32.8453C92.554 31.2262 92.1934 29.4881 92.1934 27.6072V11.9167H100.254V27.3453C100.254 28.2976 100.475 29.1905 100.929 30C101.383 30.8214 101.999 31.4643 102.778 31.9405C103.558 32.4167 104.43 32.6548 105.407 32.6548C106.384 32.6548 107.303 32.4167 108.082 31.9405C108.862 31.4643 109.478 30.8214 109.932 30C110.386 29.1786 110.607 28.2976 110.607 27.3453V11.9167H118.667V27.6072C118.667 29.4881 118.307 31.2262 117.597 32.8214C116.888 34.4167 115.852 35.7857 114.48 36.9167C113.107 38.0476 111.456 38.8453 109.513 39.3095V50H101.452Z" fill="black"/>
    <path d="M128.473 38.8334V22.7143C128.473 20.4762 128.985 18.4643 130.008 16.6786C131.032 14.8929 132.497 13.4762 134.405 12.4524C136.313 11.4286 138.581 10.9048 141.21 10.9048C142.524 10.9048 143.734 11.0595 144.85 11.3572C145.955 11.6548 146.967 12.0715 147.886 12.5834C148.805 13.0953 149.596 13.7143 150.248 14.4167H150.352C151.05 13.7024 151.853 13.0953 152.772 12.5834C153.691 12.0715 154.714 11.6667 155.842 11.3572C156.971 11.0595 158.192 10.9048 159.506 10.9048C162.135 10.9048 164.403 11.4167 166.311 12.4524C168.219 13.4762 169.684 14.8929 170.731 16.6786C171.766 18.4643 172.29 20.4762 172.29 22.7143V38.8334H164.182V22.9762C164.182 22.0953 163.961 21.2857 163.531 20.5595C163.101 19.8334 162.519 19.2381 161.786 18.7738C161.053 18.3095 160.228 18.0834 159.297 18.0834C158.367 18.0834 157.517 18.3095 156.773 18.7738C156.029 19.2381 155.447 19.8334 155.028 20.5595C154.609 21.2857 154.4 22.0953 154.4 22.9762V38.8334H146.339V22.9762C146.339 22.0953 146.118 21.2857 145.688 20.5595C145.258 19.8334 144.664 19.2381 143.92 18.7738C143.175 18.3095 142.338 18.0834 141.396 18.0834C140.454 18.0834 139.616 18.3095 138.872 18.7738C138.127 19.2381 137.546 19.8334 137.127 20.5595C136.708 21.2857 136.499 22.0953 136.499 22.9762V38.8334H128.438H128.473Z" fill="black"/>
    <path d="M186.888 39.4643C184.526 39.4643 182.456 38.8453 180.653 37.6072C178.85 36.3691 177.443 34.6905 176.442 32.5834C175.442 30.4762 174.93 28.0834 174.93 25.4286C174.93 22.7738 175.523 20.1905 176.698 18.0119C177.873 15.8334 179.548 14.1072 181.712 12.8215C183.875 11.5476 186.434 10.9048 189.377 10.9048C192.32 10.9048 194.89 11.5357 196.996 12.7976C199.089 14.0595 200.706 15.7738 201.834 17.9524C202.963 20.131 203.521 22.5715 203.521 25.2619V38.8214H195.623V34.4643H195.414C194.925 35.4167 194.309 36.2857 193.541 37.0476C192.773 37.8095 191.854 38.4048 190.761 38.8334C189.668 39.2619 188.377 39.4762 186.888 39.4762V39.4643ZM189.272 32.3453C190.482 32.3453 191.552 32.0357 192.471 31.4167C193.39 30.7976 194.088 29.9405 194.576 28.8334C195.065 27.7381 195.309 26.5119 195.309 25.1667C195.309 23.8215 195.065 22.6667 194.576 21.6072C194.088 20.5476 193.39 19.7024 192.471 19.0834C191.552 18.4643 190.482 18.1548 189.272 18.1548C188.062 18.1548 186.934 18.4643 186.004 19.0834C185.073 19.7024 184.352 20.5476 183.875 21.6072C183.386 22.6667 183.142 23.8572 183.142 25.1667C183.142 26.4762 183.386 27.7381 183.875 28.8334C184.364 29.9286 185.073 30.7976 186.004 31.4167C186.934 32.0357 188.028 32.3453 189.272 32.3453Z" fill="black"/>
    <path d="M207.418 38.8333V0H215.479V21.8571H219.015L225.098 11.5357H234.089L226.913 22.9167C228.995 23.7976 230.611 25.1548 231.775 26.9881C232.938 28.8095 233.519 30.9524 233.519 33.3929V38.8214H225.412V33.3929C225.412 32.4048 225.179 31.5 224.714 30.7024C224.249 29.9048 223.632 29.2738 222.865 28.8095C222.097 28.3452 221.236 28.119 220.271 28.119H215.49V38.8095H207.429L207.418 38.8333Z" fill="black"/>
    <path d="M250.548 38.8334C247.536 38.8334 244.884 38.2619 242.592 37.1072C240.301 35.9524 238.533 34.3572 237.265 32.3214C235.997 30.2857 235.369 27.9167 235.369 25.2262C235.369 22.25 235.974 19.6905 237.183 17.5714C238.393 15.4405 240.022 13.8095 242.046 12.6548C244.069 11.5 246.314 10.9286 248.78 10.9286C251.584 10.9286 253.933 11.5357 255.818 12.7381C257.702 13.9405 259.133 15.5834 260.11 17.6548C261.075 19.7262 261.564 22.0953 261.564 24.7619C261.564 25.2262 261.54 25.7619 261.482 26.381C261.436 27 261.366 27.4881 261.296 27.8453H243.837C244.046 28.7619 244.442 29.5476 245.035 30.1905C245.628 30.8334 246.373 31.2976 247.268 31.5953C248.164 31.8929 249.176 32.0476 250.281 32.0476H258.435V38.8572H250.537L250.548 38.8334ZM243.639 22.6548H253.77C253.701 22.0834 253.596 21.5357 253.456 21C253.317 20.4643 253.096 20 252.805 19.5953C252.514 19.1905 252.177 18.8334 251.793 18.5357C251.409 18.2381 250.967 18 250.467 17.8214C249.967 17.6429 249.397 17.5595 248.78 17.5595C247.978 17.5595 247.268 17.7024 246.652 17.9881C246.024 18.2738 245.512 18.6548 245.093 19.131C244.674 19.6072 244.36 20.1548 244.128 20.7857C243.907 21.4048 243.744 22.0357 243.639 22.6786V22.6548Z" fill="black"/>
    <path d="M263.96 38.8333V19.5833C263.96 17.0952 264.658 15.1547 266.042 13.7262C267.426 12.2976 269.345 11.5952 271.811 11.5952H279.558V18.2976H273.789C273.3 18.2976 272.893 18.4643 272.544 18.7976C272.195 19.1309 272.021 19.5714 272.021 20.0952V38.8214H263.96V38.8333Z" fill="black"/>
    <path d="M281.105 38.8333V32.2857H293.947C294.296 32.2857 294.61 32.2024 294.877 32.0476C295.156 31.8928 295.377 31.6667 295.552 31.3809C295.726 31.0952 295.808 30.7976 295.808 30.4762C295.808 30.119 295.726 29.7976 295.552 29.5238C295.377 29.2381 295.156 29.0238 294.877 28.8571C294.598 28.7024 294.284 28.619 293.947 28.619H289.271C287.537 28.619 285.967 28.3214 284.571 27.7381C283.164 27.1547 282.059 26.2262 281.245 24.9762C280.43 23.7143 280.023 22.0833 280.023 20.0595C280.023 18.5 280.396 17.0833 281.14 15.8095C281.884 14.5357 282.908 13.5 284.211 12.7262C285.514 11.9405 286.944 11.5595 288.503 11.5595H301.344V18.1547H289.759C289.271 18.1547 288.863 18.3095 288.538 18.6309C288.212 18.9524 288.049 19.3452 288.049 19.7976C288.049 20.2976 288.212 20.7143 288.538 21.0476C288.863 21.3809 289.271 21.5476 289.759 21.5476H294.33C296.273 21.5476 297.948 21.8452 299.344 22.4286C300.751 23.0119 301.833 23.9405 302.612 25.2262C303.392 26.5 303.787 28.1547 303.787 30.1786C303.787 31.7738 303.392 33.2262 302.612 34.5357C301.833 35.8452 300.798 36.8928 299.495 37.6786C298.192 38.4643 296.727 38.8452 295.098 38.8452H281.117L281.105 38.8333Z" fill="black"/>
    <path d="M309.568 18.5357C308.812 18.5357 308.114 18.3929 307.451 18.1072C306.788 17.8214 306.218 17.4286 305.718 16.9167C305.218 16.4048 304.834 15.8095 304.555 15.1429C304.275 14.4762 304.136 13.75 304.136 12.9881C304.136 12.2262 304.275 11.5 304.555 10.8333C304.834 10.1667 305.218 9.57144 305.718 9.07144C306.218 8.55954 306.8 8.16668 307.451 7.88096C308.102 7.59525 308.812 7.45239 309.568 7.45239C310.324 7.45239 311.022 7.59525 311.685 7.88096C312.348 8.16668 312.918 8.57144 313.418 9.07144C313.918 9.58334 314.302 10.1667 314.581 10.8333C314.86 11.5 315 12.2262 315 12.9881C315 13.75 314.86 14.4762 314.581 15.1429C314.302 15.8095 313.918 16.4048 313.418 16.9167C312.918 17.4286 312.336 17.8214 311.685 18.1072C311.022 18.3929 310.324 18.5357 309.568 18.5357ZM309.568 17.3452C310.161 17.3452 310.708 17.2381 311.22 17.0119C311.731 16.7857 312.173 16.4762 312.557 16.0833C312.941 15.6786 313.232 15.2143 313.453 14.6905C313.674 14.1667 313.779 13.6072 313.779 13C313.779 12.3929 313.674 11.8333 313.453 11.3095C313.232 10.7857 312.93 10.3333 312.557 9.92858C312.173 9.53573 311.731 9.2262 311.22 9.00001C310.708 8.77382 310.161 8.66668 309.568 8.66668C308.975 8.66668 308.44 8.77382 307.916 9.00001C307.404 9.2262 306.951 9.53573 306.567 9.92858C306.183 10.3214 305.881 10.7857 305.66 11.3095C305.439 11.8333 305.334 12.3929 305.334 13C305.334 13.6072 305.439 14.1548 305.66 14.6905C305.881 15.2143 306.183 15.6786 306.567 16.0833C306.951 16.4881 307.404 16.7976 307.916 17.0119C308.428 17.2381 308.975 17.3452 309.568 17.3452ZM307.416 15.8572V10.1548H309.929C310.289 10.1548 310.626 10.2381 310.929 10.4048C311.231 10.5714 311.476 10.8095 311.662 11.1072C311.848 11.4048 311.941 11.75 311.941 12.131C311.941 12.5119 311.859 12.8214 311.697 13.1072C311.534 13.3929 311.313 13.631 311.034 13.7976L311.464 14.5238C311.464 14.5238 311.51 14.5833 311.545 14.5952C311.58 14.6191 311.615 14.631 311.662 14.631H312.197V15.8453H311.371C311.127 15.8453 310.906 15.7857 310.731 15.6548C310.545 15.5238 310.405 15.381 310.289 15.2024L309.708 14.1667H308.858V15.8333H307.428L307.416 15.8572ZM308.835 12.8929H309.801C309.987 12.8929 310.15 12.8333 310.289 12.7024C310.429 12.5714 310.499 12.381 310.499 12.131C310.499 11.9286 310.429 11.7619 310.289 11.6429C310.15 11.5238 309.987 11.4643 309.801 11.4643H308.835V12.8929Z" fill="black"/>
    <path d="M68.0808 11.2738H49.8189C47.1552 11.2738 44.9917 13.4881 44.9917 16.2143V34.9048C44.9917 37.6309 47.1552 39.8452 49.8189 39.8452H68.0808C70.7444 39.8452 72.908 37.6309 72.908 34.9048V16.2143C72.908 13.4881 70.7444 11.2738 68.0808 11.2738ZM58.9498 34.4643C54.1459 34.4643 50.2493 30.4762 50.2493 25.5714C50.2493 20.6667 54.1459 16.6786 58.9498 16.6786C63.7537 16.6786 67.6504 20.6667 67.6504 25.5714C67.6504 30.4762 63.7537 34.4643 58.9498 34.4643Z" fill="black"/>
    </g>
    <defs>
    <clipPath id="clip0_7_2">
    <rect width="315" height="50" fill="white"/>
    </clipPath>
    </defs>
    </svg>
    