<svg width="537" height="120" viewBox="0 0 537 120" fill="none" xmlns="http://www.w3.org/2000/svg">
    <path d="M0.759996 118.053V69.0513C0.759996 62.2475 2.32463 56.1313 5.45391 50.7028C8.58319 45.2742 13.0638 40.9675 18.8956 37.8552C24.7274 34.7428 31.6616 33.1504 39.6982 33.1504C43.7165 33.1504 47.4147 33.6209 50.8285 34.5256C54.2067 35.4304 57.3004 36.6971 60.1096 38.2532C62.9189 39.8094 65.3369 41.6913 67.3283 43.8266H67.6483C69.7819 41.6552 72.2356 39.8094 75.0448 38.2532C77.854 36.6971 80.9833 35.4666 84.4326 34.5256C87.882 33.6209 91.6158 33.1504 95.6341 33.1504C103.671 33.1504 110.605 34.7066 116.437 37.8552C122.268 40.9675 126.749 45.2742 129.949 50.7028C133.114 56.1313 134.714 62.2475 134.714 69.0513V118.053H109.929V69.8475C109.929 67.1694 109.254 64.7085 107.938 62.5009C106.622 60.2933 104.844 58.4837 102.604 57.0723C100.364 55.6609 97.8388 54.9732 94.994 54.9732C92.1492 54.9732 89.5533 55.6609 87.2775 57.0723C85.0016 58.4837 83.2236 60.2933 81.9435 62.5009C80.6633 64.7085 80.0232 67.1694 80.0232 69.8475V118.053H55.3801V69.8475C55.3801 67.1694 54.7045 64.7085 53.3888 62.5009C52.0731 60.2933 50.2595 58.4837 47.9837 57.0723C45.7078 55.6609 43.1475 54.9732 40.2671 54.9732C37.3868 54.9732 34.8265 55.6609 32.5506 57.0723C30.2748 58.4837 28.4968 60.2933 27.2166 62.5009C25.9365 64.7085 25.2964 67.1694 25.2964 69.8475V118.053H0.65332H0.759996Z" fill="black"/>
    <path d="M179.342 119.971C172.124 119.971 165.794 118.089 160.282 114.326C154.77 110.562 150.468 105.459 147.409 99.0532C144.351 92.6475 142.787 85.3732 142.787 77.3028C142.787 69.2323 144.6 61.379 148.192 54.7561C151.783 48.1332 156.904 42.8856 163.518 38.9771C170.132 35.1047 177.955 33.1504 186.952 33.1504C195.949 33.1504 203.808 35.0685 210.244 38.9047C216.645 42.7409 221.588 47.9523 225.037 54.5751C228.486 61.198 230.193 68.6171 230.193 76.7961V118.017H206.048V104.771H205.408C203.914 107.667 202.03 110.308 199.683 112.625C197.336 114.941 194.526 116.75 191.184 118.053C187.841 119.356 183.894 120.008 179.342 120.008V119.971ZM186.632 98.3294C190.33 98.3294 193.602 97.3885 196.411 95.5066C199.22 93.6247 201.354 91.019 202.847 87.6532C204.341 84.3237 205.088 80.5961 205.088 76.5066C205.088 72.417 204.341 68.9066 202.847 65.6856C201.354 62.4647 199.22 59.8952 196.411 58.0132C193.602 56.1313 190.33 55.1904 186.632 55.1904C182.934 55.1904 179.485 56.1313 176.64 58.0132C173.795 59.8952 171.59 62.4647 170.132 65.6856C168.639 68.9066 167.892 72.5256 167.892 76.5066C167.892 80.4875 168.639 84.3237 170.132 87.6532C171.626 90.9828 173.795 93.6247 176.64 95.5066C179.485 97.3885 182.827 98.3294 186.632 98.3294Z" fill="black"/>
    <path d="M242.106 118.053V0H266.749V66.4457H277.559L296.157 35.0686H323.645L301.704 69.6667C308.069 72.3448 313.012 76.4705 316.568 82.0438C320.124 87.581 321.902 94.0952 321.902 101.514V118.017H297.117V101.514C297.117 98.5105 296.406 95.76 294.983 93.3352C293.561 90.9105 291.676 88.9924 289.329 87.581C286.982 86.1695 284.351 85.4819 281.399 85.4819H266.784V117.981H242.141L242.106 118.053Z" fill="black"/>
    <path d="M373.962 118.053C364.752 118.053 356.644 116.316 349.639 112.806C342.634 109.295 337.229 104.446 333.353 98.2572C329.477 92.0686 327.556 84.8667 327.556 76.6877C327.556 67.64 329.406 59.8591 333.104 53.4172C336.802 46.9391 341.78 41.981 347.968 38.4705C354.155 34.96 361.018 33.2229 368.557 33.2229C377.127 33.2229 384.31 35.0686 390.071 38.7239C395.832 42.3791 400.205 47.3734 403.192 53.6705C406.144 59.9677 407.637 67.1696 407.637 75.2762C407.637 76.6877 407.566 78.3162 407.389 80.1981C407.246 82.08 407.033 83.5639 406.82 84.6496H353.444C354.084 87.4362 355.293 89.8248 357.107 91.7791C358.92 93.7334 361.196 95.1448 363.934 96.0496C366.672 96.9543 369.766 97.4248 373.144 97.4248H398.072V118.126H373.927L373.962 118.053ZM352.84 68.8705H383.812C383.599 67.1334 383.279 65.4686 382.852 63.84C382.425 62.2115 381.75 60.8 380.861 59.5696C379.972 58.3391 378.941 57.2534 377.767 56.3486C376.594 55.4439 375.242 54.72 373.713 54.1772C372.184 53.6343 370.442 53.381 368.557 53.381C366.103 53.381 363.934 53.8153 362.05 54.6839C360.129 55.5524 358.565 56.7105 357.285 58.1581C356.004 59.6058 355.044 61.2705 354.333 63.1886C353.657 65.0705 353.16 66.9886 352.84 68.9429V68.8705Z" fill="black"/>
    <path d="M414.963 118.053V59.5333C414.963 51.9695 417.096 46.0705 421.328 41.7276C425.56 37.3847 431.427 35.2495 438.966 35.2495H462.649V55.6248H445.011C443.517 55.6248 442.273 56.1314 441.206 57.1448C440.139 58.1581 439.606 59.4971 439.606 61.0895V118.017H414.963V118.053Z" fill="black"/>
    <path d="M467.378 118.053V98.1485H506.636C507.703 98.1485 508.663 97.8951 509.481 97.4247C510.335 96.9542 511.01 96.2666 511.544 95.398C512.077 94.5294 512.326 93.6247 512.326 92.6475C512.326 91.5618 512.077 90.5847 511.544 89.7523C511.01 88.8837 510.335 88.2323 509.481 87.7256C508.628 87.2551 507.668 87.0018 506.636 87.0018H492.341C487.043 87.0018 482.242 86.097 477.975 84.3237C473.672 82.5504 470.294 79.7275 467.805 75.9275C465.316 72.0913 464.071 67.1332 464.071 60.9809C464.071 56.2399 465.209 51.9332 467.485 48.0609C469.761 44.1885 472.89 41.0399 476.873 38.6875C480.855 36.299 485.229 35.1409 489.994 35.1409H529.253V55.1904H493.835C492.341 55.1904 491.097 55.6609 490.101 56.638C489.105 57.6152 488.608 58.8094 488.608 60.1847C488.608 61.7047 489.105 62.9713 490.101 63.9847C491.097 64.998 492.341 65.5047 493.835 65.5047H507.81C513.748 65.5047 518.869 66.4094 523.136 68.1828C527.439 69.9561 530.746 72.779 533.129 76.6875C535.511 80.5599 536.72 85.5904 536.72 91.7428C536.72 96.5923 535.511 101.008 533.129 104.988C530.746 108.969 527.581 112.154 523.599 114.543C519.616 116.931 515.135 118.089 510.157 118.089H467.414L467.378 118.053Z" fill="black"/>
    </svg>
    