<svg width="363" height="136" viewBox="0 0 363 136" fill="none" xmlns="http://www.w3.org/2000/svg">
    <path d="M3.30708 103.175V83.2706H42.5653C43.6321 83.2706 44.5922 83.0172 45.4101 82.5467C46.2635 82.0763 46.9392 81.3887 47.4726 80.5201C48.006 79.6515 48.2549 78.7467 48.2549 77.7696C48.2549 76.6839 48.006 75.7068 47.4726 74.8744C46.9392 74.0058 46.2635 73.3544 45.4101 72.8477C44.5567 72.3772 43.5965 72.1239 42.5653 72.1239H28.2702C22.9717 72.1239 18.1712 71.2191 13.904 69.4458C9.6012 67.6725 6.223 64.8496 3.7338 61.0496C1.2446 57.2134 0 52.2553 0 46.1029C0 41.362 1.13792 37.0553 3.41376 33.1829C5.6896 29.3106 8.81888 26.162 12.8016 23.8096C16.7843 21.421 21.1582 20.2629 25.9232 20.2629H65.1814V40.3125H29.7637C28.2702 40.3125 27.0256 40.7829 26.0299 41.7601C25.0342 42.7372 24.5364 43.9315 24.5364 45.3068C24.5364 46.8268 25.0342 48.0934 26.0299 49.1067C27.0256 50.1201 28.2702 50.6267 29.7637 50.6267H43.7388C49.6773 50.6267 54.7624 51.5315 59.0651 53.3048C63.3679 55.0782 66.675 57.901 69.0575 61.8096C71.44 65.682 72.6135 70.7125 72.6135 76.8648C72.6135 81.7144 71.44 86.1296 69.0575 90.1106C66.675 94.0915 63.5101 97.2763 59.5274 99.6648C55.5447 102.053 51.0641 103.212 46.0857 103.212H3.30708V103.175Z" fill="black"/>
    <path d="M131.678 40.7466V20.2266H109.275V-0.00390625H84.4895V20.2266H71.1545V40.7466H84.4895V78.8913C84.4895 86.3466 86.6231 92.2456 90.8548 96.5885C95.0864 100.968 100.954 103.139 108.493 103.139H131.678V82.1123H113.898C112.617 82.1123 111.551 81.6418 110.626 80.737C109.737 79.8323 109.275 78.7104 109.275 77.4075V40.7104H131.678V40.7466Z" fill="black"/>
    <path d="M229.539 103.175V44.6554C229.539 37.0916 231.672 31.1925 235.904 26.8497C240.136 22.543 246.003 20.3716 253.542 20.3716H277.225V40.7468H259.587C258.093 40.7468 256.849 41.2535 255.782 42.2668C254.715 43.2802 254.182 44.6192 254.182 46.2116V103.139H229.539V103.175Z" fill="black"/>
    <path d="M310.118 136V103.646C304.179 102.126 299.094 99.7009 294.863 96.2989C290.631 92.897 287.395 88.7713 285.155 83.8494C282.914 78.9275 281.812 73.6437 281.812 67.9256V20.2266H306.455V67.1294C306.455 70.0247 307.131 72.7389 308.518 75.1999C309.904 77.697 311.789 79.6513 314.172 81.0989C316.554 82.5466 319.221 83.2704 322.208 83.2704C325.195 83.2704 328.004 82.5466 330.387 81.0989C332.769 79.6513 334.654 77.697 336.041 75.1999C337.428 72.7028 338.103 70.0247 338.103 67.1294V20.2266H362.747V67.9256C362.747 73.6437 361.644 78.9275 359.475 83.777C357.306 88.6266 354.141 92.7885 349.945 96.2266C345.749 99.6647 340.699 102.089 334.761 103.501V136H310.118Z" fill="black"/>
    <path d="M208.096 18.2725H152.267C144.124 18.2725 137.51 25.0039 137.51 33.2915V90.1105C137.51 98.3982 144.124 105.13 152.267 105.13H208.096C216.239 105.13 222.853 98.3982 222.853 90.1105V33.2915C222.853 25.0039 216.239 18.2725 208.096 18.2725ZM180.182 88.7715C165.495 88.7715 153.583 76.6477 153.583 61.7372C153.583 46.8267 165.495 34.7029 180.182 34.7029C194.868 34.7029 206.78 46.8267 206.78 61.7372C206.78 76.6477 194.868 88.7715 180.182 88.7715Z" fill="black"/>
    </svg>
    